<svg width="1000" height="1000" viewBox="0 0 1000 1000" xmlns="http://www.w3.org/2000/svg"><defs/><path fill="#ffffff" d="M 0 0 L 1000 0 L 1000 1000 L 0 1000 Z"/><path fill="#d10809" transform="matrix(0.44500997670815373 0 0 0.44500997670815373 28.41548919254253 -4.39310981868645)" d="M 647.9174943736 1090.37168797623 L 539.4174943736 1015.67168797623 L 357.8174943736 1142.77168797623 L 301.0174943736 1182.57168797623 C 283.6174943736 1194.77168797623 273.2174943736 1214.67168797623 273.2174943736 1235.97168797623 L 273.2174943736 1316.07168797623 C 273.2174943736 1366.17168797623 329.3174943736 1395.67168797623 370.6174943736 1367.37168797623 L 399.8174943736 1347.37168797623 L 495.6174943736 1281.77168797623 L 526.5174943736 1260.57168797623 L 647.8174943736 1177.47168797623 C 678.4174943736 1156.57168797623 678.5174943736 1111.37168797623 647.9174943736 1090.37168797623 Z"/><g opacity="0.67" transform="matrix(0.44500997670815373 0 0 0.44500997670815373 28.41548919254253 -4.39310981868645)"><path fill="#d10809" d="M 647.9174943736 1090.37168797623 L 539.4174943736 1015.67168797623 L 370.7174943736 899.57168797623 C 329.4174943736 871.17168797623 273.2174943736 900.67168797623 273.2174943736 950.87168797623 L 273.2174943736 1049.77168797623 C 273.2174943736 1071.07168797623 283.6174943736 1091.07168797623 301.1174943736 1103.27168797623 L 357.9174943736 1142.87168797623 L 462.6174943736 1216.07168797623 C 480.8174943736 1231.37168797623 492.4174943736 1254.37168797623 492.4174943736 1279.97168797623 C 492.4174943736 1281.37168797623 492.4174943736 1282.77168797623 492.3174943736 1284.17168797623 L 526.6174943736 1260.67168797623 L 647.9174943736 1177.57168797623 C 678.4174943736 1156.57168797623 678.5174943736 1111.37168797623 647.9174943736 1090.37168797623 Z"/></g><path id="text" fill="#fe1620" transform="matrix(0.8496977141933392 0 0 0.8496977141933392 248.14805509884425 52.89721828889317)" d="M 124.73119107763 510.48584961103 L 124.73119107763 440.66766779285 L 133.18573653217 440.66766779285 L 133.18573653217 502.98584961103 L 165.64028198672 502.98584961103 L 165.64028198672 510.48584961103 L 124.73119107763 510.48584961103 Z M 185.9584638049 510.48584961103 L 177.09482744126 510.48584961103 L 202.73119107763 440.66766779285 L 211.4584638049 440.66766779285 L 237.09482744126 510.48584961103 L 228.23119107763 510.48584961103 L 207.36755471399 451.7131223383 L 206.82210016853 451.7131223383 L 185.9584638049 510.48584961103 Z M 189.23119107763 483.2131223383 L 224.9584638049 483.2131223383 L 224.9584638049 490.7131223383 L 189.23119107763 490.7131223383 L 189.23119107763 483.2131223383 Z M 293.82210016853 440.66766779285 L 302.27664562308 440.66766779285 L 302.27664562308 486.89494052012 C 302.27664562308 491.66766779285 301.15732744126 495.92334961103 298.91869107763 499.66198597467 C 296.68005471399 503.4006223383 293.52664562308 506.34380415648 289.4584638049 508.49153142921 C 285.39028198672 510.63925870194 280.61755471399 511.7131223383 275.14028198672 511.7131223383 C 269.66300925944 511.7131223383 264.89028198672 510.63925870194 260.82210016853 508.49153142921 C 256.75391835035 506.34380415648 253.60050925944 503.4006223383 251.36187289581 499.66198597467 C 249.12323653217 495.92334961103 248.00391835035 491.66766779285 248.00391835035 486.89494052012 L 248.00391835035 440.66766779285 L 256.4584638049 440.66766779285 L 256.4584638049 486.2131223383 C 256.4584638049 489.62221324739 257.2084638049 492.6506223383 258.7084638049 495.29834961103 C 260.2084638049 497.94607688376 262.35050925944 500.0256223383 265.13460016853 501.53698597467 C 267.91869107763 503.04834961103 271.25391835035 503.80403142921 275.14028198672 503.80403142921 C 279.02664562308 503.80403142921 282.36755471399 503.04834961103 285.16300925944 501.53698597467 C 287.9584638049 500.0256223383 290.10050925944 497.94607688376 291.58914562308 495.29834961103 C 293.07778198672 492.6506223383 293.82210016853 489.62221324739 293.82210016853 486.2131223383 L 293.82210016853 440.66766779285 Z M 374.54937289581 440.66766779285 L 374.54937289581 510.48584961103 L 366.36755471399 510.48584961103 L 328.32210016853 455.66766779285 L 327.64028198672 455.66766779285 L 327.64028198672 510.48584961103 L 319.18573653217 510.48584961103 L 319.18573653217 440.66766779285 L 327.36755471399 440.66766779285 L 365.54937289581 495.62221324739 L 366.23119107763 495.62221324739 L 366.23119107763 440.66766779285 L 374.54937289581 440.66766779285 Z M 413.00391835035 510.48584961103 L 391.4584638049 510.48584961103 L 391.4584638049 440.66766779285 L 413.9584638049 440.66766779285 C 420.73119107763 440.66766779285 426.52664562308 442.05971324739 431.34482744126 444.84380415648 C 436.16300925944 447.62789506558 439.85619107763 451.61653142921 442.42437289581 456.80971324739 C 444.99255471399 462.00289506558 446.27664562308 468.2131223383 446.27664562308 475.44039506558 C 446.27664562308 482.7131223383 444.98119107763 488.96880415648 442.39028198672 494.20744052012 C 439.79937289581 499.44607688376 436.02664562308 503.46880415648 431.07210016853 506.2756223383 C 426.11755471399 509.08244052012 420.09482744126 510.48584961103 413.00391835035 510.48584961103 Z M 399.91300925944 502.98584961103 L 412.4584638049 502.98584961103 C 418.23119107763 502.98584961103 423.01528198672 501.87221324739 426.81073653217 499.64494052012 C 430.60619107763 497.41766779285 433.43573653217 494.24721324739 435.29937289581 490.13357688376 C 437.16300925944 486.01994052012 438.09482744126 481.12221324739 438.09482744126 475.44039506558 C 438.09482744126 469.80403142921 437.17437289581 464.94607688376 435.3334638049 460.86653142921 C 433.49255471399 456.78698597467 430.74255471399 453.6506223383 427.0834638049 451.45744052012 C 423.42437289581 449.26425870194 418.86755471399 448.16766779285 413.41300925944 448.16766779285 L 399.91300925944 448.16766779285 L 399.91300925944 502.98584961103 Z M 460.4584638049 510.48584961103 L 460.4584638049 440.66766779285 L 484.04937289581 440.66766779285 C 489.50391835035 440.66766779285 493.98119107763 441.59380415648 497.48119107763 443.44607688376 C 500.98119107763 445.29834961103 503.57210016853 447.8381223383 505.25391835035 451.06539506558 C 506.93573653217 454.29266779285 507.77664562308 457.9631223383 507.77664562308 462.07675870194 C 507.77664562308 466.19039506558 506.93573653217 469.8381223383 505.25391835035 473.01994052012 C 503.57210016853 476.20175870194 500.99255471399 478.69607688376 497.51528198672 480.50289506558 C 494.03800925944 482.30971324739 489.59482744126 483.2131223383 484.18573653217 483.2131223383 L 465.09482744126 483.2131223383 L 465.09482744126 475.57675870194 L 483.91300925944 475.57675870194 C 487.64028198672 475.57675870194 490.6459638049 475.03130415648 492.93005471399 473.94039506558 C 495.21414562308 472.84948597467 496.87323653217 471.29834961103 497.90732744126 469.28698597467 C 498.94141835035 467.2756223383 499.4584638049 464.87221324739 499.4584638049 462.07675870194 C 499.4584638049 459.28130415648 498.93573653217 456.8381223383 497.89028198672 454.74721324739 C 496.84482744126 452.65630415648 495.17437289581 451.03698597467 492.87891835035 449.88925870194 C 490.5834638049 448.74153142921 487.54937289581 448.16766779285 483.77664562308 448.16766779285 L 468.91300925944 448.16766779285 L 468.91300925944 510.48584961103 L 460.4584638049 510.48584961103 Z M 493.32210016853 479.12221324739 L 510.50391835035 510.48584961103 L 500.68573653217 510.48584961103 L 483.77664562308 479.12221324739 L 493.32210016853 479.12221324739 Z M 515.82210016853 440.66766779285 L 525.50391835035 440.66766779285 L 544.86755471399 473.25857688376 L 545.68573653217 473.25857688376 L 565.04937289581 440.66766779285 L 574.73119107763 440.66766779285 L 549.50391835035 481.7131223383 L 549.50391835035 510.48584961103 L 541.04937289581 510.48584961103 L 541.04937289581 481.7131223383 L 515.82210016853 440.66766779285 Z"/><path id="text" transform="matrix(0.4248488570966696 0 0 0.4248488570966696 251.73993976116805 138.38840671054186)" d="M 241.00788215526 951.15351740389 L 251.09879124616 951.15351740389 L 274.82606397344 1009.10806285843 L 275.64424579162 1009.10806285843 L 299.37151851889 951.15351740389 L 309.4624276098 951.15351740389 L 309.4624276098 1020.97169922207 L 301.55333670071 1020.97169922207 L 301.55333670071 967.92624467662 L 300.87151851889 967.92624467662 L 279.05333670071 1020.97169922207 L 271.41697306435 1020.97169922207 L 249.59879124616 967.92624467662 L 248.91697306435 967.92624467662 L 248.91697306435 1020.97169922207 L 241.00788215526 1020.97169922207 L 241.00788215526 951.15351740389 Z M 334.03515488253 1020.97169922207 L 325.17151851889 1020.97169922207 L 350.80788215526 951.15351740389 L 359.53515488253 951.15351740389 L 385.17151851889 1020.97169922207 L 376.30788215526 1020.97169922207 L 355.44424579162 962.19897194934 L 354.89879124616 962.19897194934 L 334.03515488253 1020.97169922207 Z M 337.30788215526 993.69897194934 L 373.03515488253 993.69897194934 L 373.03515488253 1001.19897194934 L 337.30788215526 1001.19897194934 L 337.30788215526 993.69897194934 Z M 456.24424579162 951.15351740389 L 456.24424579162 1020.97169922207 L 448.0624276098 1020.97169922207 L 410.01697306435 966.15351740389 L 409.33515488253 966.15351740389 L 409.33515488253 1020.97169922207 L 400.88060942798 1020.97169922207 L 400.88060942798 951.15351740389 L 409.0624276098 951.15351740389 L 447.24424579162 1006.10806285843 L 447.92606397344 1006.10806285843 L 447.92606397344 951.15351740389 L 456.24424579162 951.15351740389 Z M 480.81697306435 1020.97169922207 L 471.95333670071 1020.97169922207 L 497.58970033707 951.15351740389 L 506.31697306435 951.15351740389 L 531.95333670071 1020.97169922207 L 523.08970033707 1020.97169922207 L 502.22606397344 962.19897194934 L 501.68060942798 962.19897194934 L 480.81697306435 1020.97169922207 Z M 484.08970033707 993.69897194934 L 519.81697306435 993.69897194934 L 519.81697306435 1001.19897194934 L 484.08970033707 1001.19897194934 L 484.08970033707 993.69897194934 Z M 592.11697306435 972.97169922207 C 591.36697306435 970.67624467662 590.38401851889 968.61374467662 589.16810942798 966.78419922207 C 587.95220033707 964.95465376752 586.50901851889 963.39215376752 584.83856397344 962.09669922207 C 583.16810942798 960.80124467662 581.27606397344 959.81260831298 579.1624276098 959.13079013116 C 577.04879124616 958.44897194934 574.73060942798 958.10806285843 572.20788215526 958.10806285843 C 568.07151851889 958.10806285843 564.31015488253 959.17624467662 560.92379124616 961.31260831298 C 557.5374276098 963.44897194934 554.84424579162 966.59669922207 552.84424579162 970.75579013116 C 550.84424579162 974.91488104025 549.84424579162 980.01715376752 549.84424579162 986.06260831298 C 549.84424579162 992.10806285843 550.85560942798 997.21033558571 552.87833670071 1001.3694264948 C 554.90106397344 1005.52851740389 557.63970033707 1008.67624467662 561.09424579162 1010.81260831298 C 564.54879124616 1012.94897194934 568.43515488253 1014.01715376752 572.75333670071 1014.01715376752 C 576.75333670071 1014.01715376752 580.28174579162 1013.15919922207 583.33856397344 1011.44329013116 C 586.39538215526 1009.72738104025 588.78174579162 1007.29556285843 590.49765488253 1004.14783558571 C 592.21356397344 1001.00010831298 593.07151851889 997.28988104025 593.07151851889 993.01715376752 L 595.6624276098 993.56260831298 L 574.6624276098 993.56260831298 L 574.6624276098 986.06260831298 L 601.25333670071 986.06260831298 L 601.25333670071 993.56260831298 C 601.25333670071 999.31260831298 600.03174579162 1004.31260831298 597.58856397344 1008.56260831298 C 595.14538215526 1012.81260831298 591.78174579162 1016.10238104025 587.49765488253 1018.4319264948 C 583.21356397344 1020.76147194934 578.29879124616 1021.92624467662 572.75333670071 1021.92624467662 C 566.57151851889 1021.92624467662 561.14538215526 1020.47169922207 556.4749276098 1017.56260831298 C 551.80447306435 1014.65351740389 548.16810942798 1010.51715376752 545.56583670071 1005.15351740389 C 542.96356397344 999.78988104025 541.6624276098 993.42624467662 541.6624276098 986.06260831298 C 541.6624276098 980.53988104025 542.40674579162 975.56829013116 543.89538215526 971.14783558571 C 545.38401851889 966.72738104025 547.49197306435 962.96033558571 550.21924579162 959.84669922207 C 552.94651851889 956.73306285843 556.17379124616 954.34669922207 559.90106397344 952.68760831298 C 563.62833670071 951.02851740389 567.73060942798 950.19897194934 572.20788215526 950.19897194934 C 575.88970033707 950.19897194934 579.32720033707 950.75010831298 582.52038215526 951.85238104025 C 585.71356397344 952.95465376752 588.56583670071 954.51147194934 591.07720033707 956.52283558571 C 593.58856397344 958.53419922207 595.68515488253 960.9319264948 597.36697306435 963.71601740389 C 599.04879124616 966.50010831298 600.20788215526 969.58533558571 600.84424579162 972.97169922207 L 592.11697306435 972.97169922207 Z M 620.50788215526 1020.97169922207 L 620.50788215526 951.15351740389 L 662.64424579162 951.15351740389 L 662.64424579162 958.65351740389 L 628.9624276098 958.65351740389 L 628.9624276098 982.2444264948 L 660.4624276098 982.2444264948 L 660.4624276098 989.7444264948 L 628.9624276098 989.7444264948 L 628.9624276098 1013.47169922207 L 663.18970033707 1013.47169922207 L 663.18970033707 1020.97169922207 L 620.50788215526 1020.97169922207 Z M 682.71697306435 951.15351740389 L 692.80788215526 951.15351740389 L 716.53515488253 1009.10806285843 L 717.35333670071 1009.10806285843 L 741.08060942798 951.15351740389 L 751.17151851889 951.15351740389 L 751.17151851889 1020.97169922207 L 743.2624276098 1020.97169922207 L 743.2624276098 967.92624467662 L 742.58060942798 967.92624467662 L 720.7624276098 1020.97169922207 L 713.12606397344 1020.97169922207 L 691.30788215526 967.92624467662 L 690.62606397344 967.92624467662 L 690.62606397344 1020.97169922207 L 682.71697306435 1020.97169922207 L 682.71697306435 951.15351740389 Z M 772.88060942798 1020.97169922207 L 772.88060942798 951.15351740389 L 815.01697306435 951.15351740389 L 815.01697306435 958.65351740389 L 781.33515488253 958.65351740389 L 781.33515488253 982.2444264948 L 812.83515488253 982.2444264948 L 812.83515488253 989.7444264948 L 781.33515488253 989.7444264948 L 781.33515488253 1013.47169922207 L 815.5624276098 1013.47169922207 L 815.5624276098 1020.97169922207 L 772.88060942798 1020.97169922207 Z M 890.45333670071 951.15351740389 L 890.45333670071 1020.97169922207 L 882.27151851889 1020.97169922207 L 844.22606397344 966.15351740389 L 843.54424579162 966.15351740389 L 843.54424579162 1020.97169922207 L 835.08970033707 1020.97169922207 L 835.08970033707 951.15351740389 L 843.27151851889 951.15351740389 L 881.45333670071 1006.10806285843 L 882.13515488253 1006.10806285843 L 882.13515488253 951.15351740389 L 890.45333670071 951.15351740389 Z M 908.34424579162 958.65351740389 L 908.34424579162 951.15351740389 L 960.70788215526 951.15351740389 L 960.70788215526 958.65351740389 L 938.75333670071 958.65351740389 L 938.75333670071 1020.97169922207 L 930.29879124616 1020.97169922207 L 930.29879124616 958.65351740389 L 908.34424579162 958.65351740389 Z M 1048.58060942798 968.60806285843 C 1048.17151851889 965.15351740389 1046.5124276098 962.47169922207 1043.60333670071 960.56260831298 C 1040.69424579162 958.65351740389 1037.12606397344 957.69897194934 1032.89879124616 957.69897194934 C 1029.80788215526 957.69897194934 1027.10901851889 958.19897194934 1024.80220033707 959.19897194934 C 1022.49538215526 960.19897194934 1020.6999276098 961.57397194934 1019.41583670071 963.32397194934 C 1018.13174579162 965.07397194934 1017.48970033707 967.06260831298 1017.48970033707 969.28988104025 C 1017.48970033707 971.15351740389 1017.93856397344 972.75010831298 1018.83629124616 974.07965376752 C 1019.73401851889 975.40919922207 1020.8874276098 976.51147194934 1022.29651851889 977.38647194934 C 1023.70560942798 978.26147194934 1025.18288215526 978.97738104025 1026.72833670071 979.53419922207 C 1028.27379124616 980.09101740389 1029.69424579162 980.53988104025 1030.98970033707 980.88079013116 L 1038.08060942798 982.78988104025 C 1039.89879124616 983.26715376752 1041.92720033707 983.92624467662 1044.16583670071 984.76715376752 C 1046.40447306435 985.60806285843 1048.55220033707 986.75010831298 1050.60901851889 988.19329013116 C 1052.66583670071 989.63647194934 1054.36470033707 991.48306285843 1055.70560942798 993.73306285843 C 1057.04651851889 995.98306285843 1057.71697306435 998.7444264948 1057.71697306435 1002.01715376752 C 1057.71697306435 1005.78988104025 1056.73401851889 1009.19897194934 1054.76810942798 1012.2444264948 C 1052.80220033707 1015.28988104025 1049.93856397344 1017.71033558571 1046.17720033707 1019.50579013116 C 1042.41583670071 1021.30124467662 1037.85333670071 1022.19897194934 1032.48970033707 1022.19897194934 C 1027.48970033707 1022.19897194934 1023.16583670071 1021.39215376752 1019.51810942798 1019.77851740389 C 1015.87038215526 1018.16488104025 1013.00674579162 1015.91488104025 1010.92720033707 1013.02851740389 C 1008.84765488253 1010.14215376752 1007.67151851889 1006.78988104025 1007.39879124616 1002.97169922207 L 1016.12606397344 1002.97169922207 C 1016.35333670071 1005.60806285843 1017.24538215526 1007.78419922207 1018.80220033707 1009.50010831298 C 1020.35901851889 1011.21601740389 1022.33629124616 1012.48874467662 1024.73401851889 1013.31829013116 C 1027.13174579162 1014.14783558571 1029.71697306435 1014.56260831298 1032.48970033707 1014.56260831298 C 1035.71697306435 1014.56260831298 1038.61470033707 1014.03419922207 1041.18288215526 1012.97738104025 C 1043.75106397344 1011.92056285843 1045.78515488253 1010.44329013116 1047.28515488253 1008.54556285843 C 1048.78515488253 1006.64783558571 1049.53515488253 1004.42624467662 1049.53515488253 1001.88079013116 C 1049.53515488253 999.56260831298 1048.8874276098 997.67624467662 1047.59197306435 996.22169922207 C 1046.29651851889 994.76715376752 1044.59197306435 993.58533558571 1042.47833670071 992.67624467662 C 1040.36470033707 991.76715376752 1038.08060942798 990.97169922207 1035.62606397344 990.28988104025 L 1027.03515488253 987.83533558571 C 1021.58060942798 986.26715376752 1017.2624276098 984.02851740389 1014.08060942798 981.1194264948 C 1010.89879124616 978.21033558571 1009.30788215526 974.40351740389 1009.30788215526 969.69897194934 C 1009.30788215526 965.78988104025 1010.37038215526 962.37510831298 1012.49538215526 959.45465376752 C 1014.62038215526 956.53419922207 1017.48401851889 954.26147194934 1021.08629124616 952.63647194934 C 1024.68856397344 951.01147194934 1028.71697306435 950.19897194934 1033.17151851889 950.19897194934 C 1037.67151851889 950.19897194934 1041.67151851889 951.00010831298 1045.17151851889 952.60238104025 C 1048.67151851889 954.20465376752 1051.4499276098 956.39215376752 1053.50674579162 959.16488104025 C 1055.56356397344 961.93760831298 1056.64879124616 965.08533558571 1056.7624276098 968.60806285843 L 1048.58060942798 968.60806285843 Z M 1070.42606397344 951.15351740389 L 1080.10788215526 951.15351740389 L 1099.47151851889 983.7444264948 L 1100.28970033707 983.7444264948 L 1119.65333670071 951.15351740389 L 1129.33515488253 951.15351740389 L 1104.10788215526 992.19897194934 L 1104.10788215526 1020.97169922207 L 1095.65333670071 1020.97169922207 L 1095.65333670071 992.19897194934 L 1070.42606397344 951.15351740389 Z M 1183.22606397344 968.60806285843 C 1182.81697306435 965.15351740389 1181.15788215526 962.47169922207 1178.24879124616 960.56260831298 C 1175.33970033707 958.65351740389 1171.77151851889 957.69897194934 1167.54424579162 957.69897194934 C 1164.45333670071 957.69897194934 1161.75447306435 958.19897194934 1159.44765488253 959.19897194934 C 1157.14083670071 960.19897194934 1155.34538215526 961.57397194934 1154.06129124616 963.32397194934 C 1152.77720033707 965.07397194934 1152.13515488253 967.06260831298 1152.13515488253 969.28988104025 C 1152.13515488253 971.15351740389 1152.58401851889 972.75010831298 1153.48174579162 974.07965376752 C 1154.37947306435 975.40919922207 1155.53288215526 976.51147194934 1156.94197306435 977.38647194934 C 1158.35106397344 978.26147194934 1159.82833670071 978.97738104025 1161.37379124616 979.53419922207 C 1162.91924579162 980.09101740389 1164.33970033707 980.53988104025 1165.63515488253 980.88079013116 L 1172.72606397344 982.78988104025 C 1174.54424579162 983.26715376752 1176.57265488253 983.92624467662 1178.81129124616 984.76715376752 C 1181.0499276098 985.60806285843 1183.19765488253 986.75010831298 1185.25447306435 988.19329013116 C 1187.31129124616 989.63647194934 1189.01015488253 991.48306285843 1190.35106397344 993.73306285843 C 1191.69197306435 995.98306285843 1192.3624276098 998.7444264948 1192.3624276098 1002.01715376752 C 1192.3624276098 1005.78988104025 1191.37947306435 1009.19897194934 1189.41356397344 1012.2444264948 C 1187.44765488253 1015.28988104025 1184.58401851889 1017.71033558571 1180.82265488253 1019.50579013116 C 1177.06129124616 1021.30124467662 1172.49879124616 1022.19897194934 1167.13515488253 1022.19897194934 C 1162.13515488253 1022.19897194934 1157.81129124616 1021.39215376752 1154.16356397344 1019.77851740389 C 1150.51583670071 1018.16488104025 1147.65220033707 1015.91488104025 1145.57265488253 1013.02851740389 C 1143.49310942798 1010.14215376752 1142.31697306435 1006.78988104025 1142.04424579162 1002.97169922207 L 1150.77151851889 1002.97169922207 C 1150.99879124616 1005.60806285843 1151.89083670071 1007.78419922207 1153.44765488253 1009.50010831298 C 1155.00447306435 1011.21601740389 1156.98174579162 1012.48874467662 1159.37947306435 1013.31829013116 C 1161.77720033707 1014.14783558571 1164.3624276098 1014.56260831298 1167.13515488253 1014.56260831298 C 1170.3624276098 1014.56260831298 1173.26015488253 1014.03419922207 1175.82833670071 1012.97738104025 C 1178.39651851889 1011.92056285843 1180.43060942798 1010.44329013116 1181.93060942798 1008.54556285843 C 1183.43060942798 1006.64783558571 1184.18060942798 1004.42624467662 1184.18060942798 1001.88079013116 C 1184.18060942798 999.56260831298 1183.53288215526 997.67624467662 1182.2374276098 996.22169922207 C 1180.94197306435 994.76715376752 1179.2374276098 993.58533558571 1177.12379124616 992.67624467662 C 1175.01015488253 991.76715376752 1172.72606397344 990.97169922207 1170.27151851889 990.28988104025 L 1161.68060942798 987.83533558571 C 1156.22606397344 986.26715376752 1151.90788215526 984.02851740389 1148.72606397344 981.1194264948 C 1145.54424579162 978.21033558571 1143.95333670071 974.40351740389 1143.95333670071 969.69897194934 C 1143.95333670071 965.78988104025 1145.01583670071 962.37510831298 1147.14083670071 959.45465376752 C 1149.26583670071 956.53419922207 1152.12947306435 954.26147194934 1155.73174579162 952.63647194934 C 1159.33401851889 951.01147194934 1163.3624276098 950.19897194934 1167.81697306435 950.19897194934 C 1172.31697306435 950.19897194934 1176.31697306435 951.00010831298 1179.81697306435 952.60238104025 C 1183.31697306435 954.20465376752 1186.09538215526 956.39215376752 1188.15220033707 959.16488104025 C 1190.20901851889 961.93760831298 1191.29424579162 965.08533558571 1191.40788215526 968.60806285843 L 1183.22606397344 968.60806285843 Z M 1207.25333670071 958.65351740389 L 1207.25333670071 951.15351740389 L 1259.61697306435 951.15351740389 L 1259.61697306435 958.65351740389 L 1237.6624276098 958.65351740389 L 1237.6624276098 1020.97169922207 L 1229.20788215526 1020.97169922207 L 1229.20788215526 958.65351740389 L 1207.25333670071 958.65351740389 Z M 1277.50788215526 1020.97169922207 L 1277.50788215526 951.15351740389 L 1319.64424579162 951.15351740389 L 1319.64424579162 958.65351740389 L 1285.9624276098 958.65351740389 L 1285.9624276098 982.2444264948 L 1317.4624276098 982.2444264948 L 1317.4624276098 989.7444264948 L 1285.9624276098 989.7444264948 L 1285.9624276098 1013.47169922207 L 1320.18970033707 1013.47169922207 L 1320.18970033707 1020.97169922207 L 1277.50788215526 1020.97169922207 Z M 1339.71697306435 951.15351740389 L 1349.80788215526 951.15351740389 L 1373.53515488253 1009.10806285843 L 1374.35333670071 1009.10806285843 L 1398.08060942798 951.15351740389 L 1408.17151851889 951.15351740389 L 1408.17151851889 1020.97169922207 L 1400.2624276098 1020.97169922207 L 1400.2624276098 967.92624467662 L 1399.58060942798 967.92624467662 L 1377.7624276098 1020.97169922207 L 1370.12606397344 1020.97169922207 L 1348.30788215526 967.92624467662 L 1347.62606397344 967.92624467662 L 1347.62606397344 1020.97169922207 L 1339.71697306435 1020.97169922207 L 1339.71697306435 951.15351740389 Z"/></svg>